<mxfile host="app.diagrams.net" modified="2021-05-13T13:20:43.741Z" agent="5.0 (Macintosh; Intel Mac OS X 10_15_7) AppleWebKit/537.36 (KHTML, like Gecko) Chrome/90.0.4430.212 Safari/537.36" etag="j-NVBytfSoPqASzhVpao" version="14.6.12" type="github">
  <diagram id="Dqtv4yzg9Sx5hA2wT-ZQ" name="第 1 页">
    <mxGraphModel dx="1158" dy="614" grid="1" gridSize="10" guides="1" tooltips="1" connect="1" arrows="1" fold="1" page="1" pageScale="1" pageWidth="827" pageHeight="1169" math="0" shadow="0">
      <root>
        <mxCell id="0" />
        <mxCell id="1" parent="0" />
        <mxCell id="f1vREz1tMnIhVN8w-E6A-22" style="edgeStyle=none;rounded=0;orthogonalLoop=1;jettySize=auto;html=1;exitX=0.339;exitY=1.092;exitDx=0;exitDy=0;strokeColor=#3333FF;strokeWidth=3;exitPerimeter=0;" edge="1" parent="1" source="f1vREz1tMnIhVN8w-E6A-2">
          <mxGeometry relative="1" as="geometry">
            <mxPoint x="305" y="167" as="targetPoint" />
            <Array as="points">
              <mxPoint x="305" y="167" />
            </Array>
          </mxGeometry>
        </mxCell>
        <mxCell id="f1vREz1tMnIhVN8w-E6A-37" style="edgeStyle=none;rounded=0;orthogonalLoop=1;jettySize=auto;html=1;exitX=0.5;exitY=1;exitDx=0;exitDy=0;strokeWidth=3;strokeColor=#3333FF;" edge="1" parent="1" source="f1vREz1tMnIhVN8w-E6A-2">
          <mxGeometry relative="1" as="geometry">
            <mxPoint x="410" y="170" as="targetPoint" />
          </mxGeometry>
        </mxCell>
        <mxCell id="f1vREz1tMnIhVN8w-E6A-53" style="edgeStyle=none;rounded=0;orthogonalLoop=1;jettySize=auto;html=1;exitX=1;exitY=0.75;exitDx=0;exitDy=0;strokeWidth=3;strokeColor=#3333FF;entryX=0.388;entryY=-0.05;entryDx=0;entryDy=0;entryPerimeter=0;" edge="1" parent="1" source="f1vREz1tMnIhVN8w-E6A-2" target="f1vREz1tMnIhVN8w-E6A-54">
          <mxGeometry relative="1" as="geometry">
            <mxPoint x="540" y="160" as="targetPoint" />
          </mxGeometry>
        </mxCell>
        <mxCell id="f1vREz1tMnIhVN8w-E6A-2" value="[]" style="rounded=1;whiteSpace=wrap;html=1;fillColor=#ffe6cc;strokeColor=#d79b00;" vertex="1" parent="1">
          <mxGeometry x="350" y="70" width="90" height="40" as="geometry" />
        </mxCell>
        <mxCell id="f1vREz1tMnIhVN8w-E6A-8" style="edgeStyle=none;rounded=0;orthogonalLoop=1;jettySize=auto;html=1;exitX=0.5;exitY=1;exitDx=0;exitDy=0;strokeColor=#3333FF;strokeWidth=3;" edge="1" parent="1" source="f1vREz1tMnIhVN8w-E6A-7">
          <mxGeometry relative="1" as="geometry">
            <mxPoint x="220" y="280" as="targetPoint" />
          </mxGeometry>
        </mxCell>
        <mxCell id="f1vREz1tMnIhVN8w-E6A-36" value="撤销" style="edgeStyle=none;rounded=0;orthogonalLoop=1;jettySize=auto;html=1;exitX=0.5;exitY=0;exitDx=0;exitDy=0;entryX=0;entryY=1;entryDx=0;entryDy=0;strokeColor=#FF0000;strokeWidth=3;" edge="1" parent="1" source="f1vREz1tMnIhVN8w-E6A-7" target="f1vREz1tMnIhVN8w-E6A-2">
          <mxGeometry relative="1" as="geometry" />
        </mxCell>
        <mxCell id="f1vREz1tMnIhVN8w-E6A-7" value="[1]" style="rounded=1;whiteSpace=wrap;html=1;fillColor=#ffe6cc;strokeColor=#d79b00;" vertex="1" parent="1">
          <mxGeometry x="240" y="170" width="80" height="40" as="geometry" />
        </mxCell>
        <mxCell id="f1vREz1tMnIhVN8w-E6A-23" style="edgeStyle=none;rounded=0;orthogonalLoop=1;jettySize=auto;html=1;exitX=0.5;exitY=1;exitDx=0;exitDy=0;strokeColor=#3333FF;strokeWidth=3;entryX=0.5;entryY=0;entryDx=0;entryDy=0;" edge="1" parent="1" source="f1vREz1tMnIhVN8w-E6A-9" target="f1vREz1tMnIhVN8w-E6A-24">
          <mxGeometry relative="1" as="geometry">
            <mxPoint x="140" y="410" as="targetPoint" />
          </mxGeometry>
        </mxCell>
        <mxCell id="f1vREz1tMnIhVN8w-E6A-31" style="edgeStyle=none;rounded=0;orthogonalLoop=1;jettySize=auto;html=1;exitX=0.75;exitY=1;exitDx=0;exitDy=0;strokeWidth=3;strokeColor=#3333FF;" edge="1" parent="1" source="f1vREz1tMnIhVN8w-E6A-9">
          <mxGeometry relative="1" as="geometry">
            <mxPoint x="260" y="400" as="targetPoint" />
          </mxGeometry>
        </mxCell>
        <mxCell id="f1vREz1tMnIhVN8w-E6A-34" value="撤销" style="edgeStyle=none;rounded=0;orthogonalLoop=1;jettySize=auto;html=1;exitX=0.5;exitY=0;exitDx=0;exitDy=0;strokeColor=#FF0000;strokeWidth=3;" edge="1" parent="1" source="f1vREz1tMnIhVN8w-E6A-9" target="f1vREz1tMnIhVN8w-E6A-7">
          <mxGeometry relative="1" as="geometry">
            <Array as="points" />
          </mxGeometry>
        </mxCell>
        <mxCell id="f1vREz1tMnIhVN8w-E6A-9" value="[1,2]" style="rounded=1;whiteSpace=wrap;html=1;fillColor=#ffe6cc;strokeColor=#d79b00;" vertex="1" parent="1">
          <mxGeometry x="160" y="280" width="90" height="40" as="geometry" />
        </mxCell>
        <mxCell id="f1vREz1tMnIhVN8w-E6A-26" style="edgeStyle=none;rounded=0;orthogonalLoop=1;jettySize=auto;html=1;exitX=0.25;exitY=1;exitDx=0;exitDy=0;strokeColor=#3333FF;strokeWidth=3;" edge="1" parent="1" source="f1vREz1tMnIhVN8w-E6A-24">
          <mxGeometry relative="1" as="geometry">
            <mxPoint x="80" y="520" as="targetPoint" />
          </mxGeometry>
        </mxCell>
        <mxCell id="f1vREz1tMnIhVN8w-E6A-30" value="撤销" style="edgeStyle=none;rounded=0;orthogonalLoop=1;jettySize=auto;html=1;exitX=0.75;exitY=0;exitDx=0;exitDy=0;entryX=0.75;entryY=1;entryDx=0;entryDy=0;strokeColor=#FF0000;strokeWidth=3;" edge="1" parent="1" source="f1vREz1tMnIhVN8w-E6A-24" target="f1vREz1tMnIhVN8w-E6A-9">
          <mxGeometry relative="1" as="geometry" />
        </mxCell>
        <mxCell id="f1vREz1tMnIhVN8w-E6A-24" value="[1,2,2]" style="rounded=1;whiteSpace=wrap;html=1;fillColor=#ffe6cc;strokeColor=#d79b00;" vertex="1" parent="1">
          <mxGeometry x="100" y="400" width="90" height="40" as="geometry" />
        </mxCell>
        <mxCell id="f1vREz1tMnIhVN8w-E6A-29" value="撤销" style="edgeStyle=none;rounded=0;orthogonalLoop=1;jettySize=auto;html=1;exitX=0.75;exitY=0;exitDx=0;exitDy=0;entryX=0.593;entryY=1.042;entryDx=0;entryDy=0;entryPerimeter=0;strokeWidth=3;strokeColor=#FF0000;" edge="1" parent="1" source="f1vREz1tMnIhVN8w-E6A-27" target="f1vREz1tMnIhVN8w-E6A-24">
          <mxGeometry relative="1" as="geometry" />
        </mxCell>
        <mxCell id="f1vREz1tMnIhVN8w-E6A-27" value="[1,2,2,3]" style="rounded=1;whiteSpace=wrap;html=1;fillColor=#ffe6cc;strokeColor=#d79b00;" vertex="1" parent="1">
          <mxGeometry x="40" y="520" width="90" height="40" as="geometry" />
        </mxCell>
        <mxCell id="f1vREz1tMnIhVN8w-E6A-33" value="撤销" style="edgeStyle=none;rounded=0;orthogonalLoop=1;jettySize=auto;html=1;exitX=0.75;exitY=0;exitDx=0;exitDy=0;entryX=1;entryY=1;entryDx=0;entryDy=0;strokeWidth=3;strokeColor=#FF0000;" edge="1" parent="1" source="f1vREz1tMnIhVN8w-E6A-32" target="f1vREz1tMnIhVN8w-E6A-9">
          <mxGeometry relative="1" as="geometry" />
        </mxCell>
        <mxCell id="f1vREz1tMnIhVN8w-E6A-32" value="[1,2,3]" style="rounded=1;whiteSpace=wrap;html=1;fillColor=#ffe6cc;strokeColor=#d79b00;" vertex="1" parent="1">
          <mxGeometry x="220" y="400" width="90" height="40" as="geometry" />
        </mxCell>
        <mxCell id="f1vREz1tMnIhVN8w-E6A-40" style="edgeStyle=none;rounded=0;orthogonalLoop=1;jettySize=auto;html=1;exitX=0.25;exitY=1;exitDx=0;exitDy=0;strokeColor=#3333FF;strokeWidth=3;" edge="1" parent="1" source="f1vREz1tMnIhVN8w-E6A-39">
          <mxGeometry relative="1" as="geometry">
            <mxPoint x="390" y="280" as="targetPoint" />
          </mxGeometry>
        </mxCell>
        <mxCell id="f1vREz1tMnIhVN8w-E6A-49" style="edgeStyle=none;rounded=0;orthogonalLoop=1;jettySize=auto;html=1;exitX=0.75;exitY=1;exitDx=0;exitDy=0;strokeWidth=3;strokeColor=#3333FF;" edge="1" parent="1" source="f1vREz1tMnIhVN8w-E6A-39">
          <mxGeometry relative="1" as="geometry">
            <mxPoint x="490" y="280" as="targetPoint" />
          </mxGeometry>
        </mxCell>
        <mxCell id="f1vREz1tMnIhVN8w-E6A-52" value="c撤销" style="edgeStyle=none;rounded=0;orthogonalLoop=1;jettySize=auto;html=1;exitX=0.75;exitY=0;exitDx=0;exitDy=0;entryX=0.75;entryY=1;entryDx=0;entryDy=0;strokeColor=#FF0000;strokeWidth=3;" edge="1" parent="1" source="f1vREz1tMnIhVN8w-E6A-39" target="f1vREz1tMnIhVN8w-E6A-2">
          <mxGeometry relative="1" as="geometry" />
        </mxCell>
        <mxCell id="f1vREz1tMnIhVN8w-E6A-39" value="[2]" style="rounded=1;whiteSpace=wrap;html=1;fillColor=#ffe6cc;strokeColor=#d79b00;" vertex="1" parent="1">
          <mxGeometry x="390" y="170" width="80" height="40" as="geometry" />
        </mxCell>
        <mxCell id="f1vREz1tMnIhVN8w-E6A-44" style="edgeStyle=none;rounded=0;orthogonalLoop=1;jettySize=auto;html=1;exitX=0.5;exitY=1;exitDx=0;exitDy=0;strokeColor=#3333FF;strokeWidth=3;entryX=0.5;entryY=0;entryDx=0;entryDy=0;" edge="1" parent="1" source="f1vREz1tMnIhVN8w-E6A-43" target="f1vREz1tMnIhVN8w-E6A-45">
          <mxGeometry relative="1" as="geometry">
            <mxPoint x="400" y="390" as="targetPoint" />
          </mxGeometry>
        </mxCell>
        <mxCell id="f1vREz1tMnIhVN8w-E6A-48" value="撤销" style="edgeStyle=none;rounded=0;orthogonalLoop=1;jettySize=auto;html=1;exitX=0.75;exitY=0;exitDx=0;exitDy=0;entryX=0.5;entryY=1;entryDx=0;entryDy=0;strokeColor=#FF0000;strokeWidth=3;" edge="1" parent="1" source="f1vREz1tMnIhVN8w-E6A-43" target="f1vREz1tMnIhVN8w-E6A-39">
          <mxGeometry relative="1" as="geometry" />
        </mxCell>
        <mxCell id="f1vREz1tMnIhVN8w-E6A-43" value="[2,2]" style="rounded=1;whiteSpace=wrap;html=1;fillColor=#ffe6cc;strokeColor=#d79b00;arcSize=8;" vertex="1" parent="1">
          <mxGeometry x="360" y="280" width="80" height="40" as="geometry" />
        </mxCell>
        <mxCell id="f1vREz1tMnIhVN8w-E6A-47" value="撤销" style="edgeStyle=none;rounded=0;orthogonalLoop=1;jettySize=auto;html=1;exitX=0.75;exitY=0;exitDx=0;exitDy=0;strokeWidth=3;strokeColor=#FF0000;" edge="1" parent="1" source="f1vREz1tMnIhVN8w-E6A-45">
          <mxGeometry relative="1" as="geometry">
            <mxPoint x="423" y="320" as="targetPoint" />
          </mxGeometry>
        </mxCell>
        <mxCell id="f1vREz1tMnIhVN8w-E6A-45" value="[2,2,3]" style="rounded=1;whiteSpace=wrap;html=1;fillColor=#ffe6cc;strokeColor=#d79b00;" vertex="1" parent="1">
          <mxGeometry x="355" y="400" width="90" height="40" as="geometry" />
        </mxCell>
        <mxCell id="f1vREz1tMnIhVN8w-E6A-51" value="撤销" style="edgeStyle=none;rounded=0;orthogonalLoop=1;jettySize=auto;html=1;exitX=0.5;exitY=0;exitDx=0;exitDy=0;entryX=1;entryY=1;entryDx=0;entryDy=0;strokeWidth=3;strokeColor=#FF0000;" edge="1" parent="1" source="f1vREz1tMnIhVN8w-E6A-50" target="f1vREz1tMnIhVN8w-E6A-39">
          <mxGeometry relative="1" as="geometry" />
        </mxCell>
        <mxCell id="f1vREz1tMnIhVN8w-E6A-50" value="[2,3]" style="rounded=1;whiteSpace=wrap;html=1;fillColor=#ffe6cc;strokeColor=#d79b00;arcSize=8;" vertex="1" parent="1">
          <mxGeometry x="470" y="280" width="80" height="40" as="geometry" />
        </mxCell>
        <mxCell id="f1vREz1tMnIhVN8w-E6A-54" value="[3]" style="rounded=1;whiteSpace=wrap;html=1;fillColor=#ffe6cc;strokeColor=#d79b00;" vertex="1" parent="1">
          <mxGeometry x="530" y="170" width="80" height="40" as="geometry" />
        </mxCell>
      </root>
    </mxGraphModel>
  </diagram>
</mxfile>
